<svg width="30" height="31" viewBox="0 0 30 31" fill="none" xmlns="http://www.w3.org/2000/svg">
<g clip-path="url(#clip0_12_59)">
<path fill-rule="evenodd" clip-rule="evenodd" d="M15 16.75C17.995 16.75 20.7188 17.6175 22.7225 18.8388C23.7225 19.4513 24.5775 20.17 25.195 20.9513C25.8025 21.7213 26.25 22.6413 26.25 23.625C26.25 24.6813 25.7362 25.5138 24.9963 26.1075C24.2962 26.67 23.3725 27.0425 22.3913 27.3025C20.4188 27.8238 17.7863 28 15 28C12.2137 28 9.58125 27.825 7.60875 27.3025C6.6275 27.0425 5.70375 26.67 5.00375 26.1075C4.2625 25.5125 3.75 24.6813 3.75 23.625C3.75 22.6413 4.1975 21.7213 4.805 20.9513C5.4225 20.17 6.27625 19.4513 7.2775 18.8388C9.28125 17.6175 12.0063 16.75 15 16.75ZM15 19.25C12.4712 19.25 10.1962 19.9875 8.58 20.9738C7.77125 21.4663 7.16125 22.0013 6.7675 22.5013C6.3625 23.0138 6.25 23.4013 6.25 23.625C6.25 23.7775 6.29625 23.9388 6.56875 24.1575C6.88 24.4075 7.42125 24.6663 8.24875 24.885C9.89625 25.3225 12.2638 25.5 15 25.5C17.7375 25.5 20.1038 25.3213 21.75 24.885C22.5787 24.6663 23.12 24.4075 23.4313 24.1575C23.7038 23.9388 23.75 23.7775 23.75 23.625C23.75 23.4 23.6375 23.0138 23.2337 22.5013C22.8387 22.0013 22.2288 21.4663 21.42 20.9738C19.8037 19.9863 17.5288 19.25 15 19.25ZM15 3C16.6576 3 18.2473 3.65848 19.4194 4.83058C20.5915 6.00269 21.25 7.5924 21.25 9.25C21.25 10.9076 20.5915 12.4973 19.4194 13.6694C18.2473 14.8415 16.6576 15.5 15 15.5C13.3424 15.5 11.7527 14.8415 10.5806 13.6694C9.40848 12.4973 8.75 10.9076 8.75 9.25C8.75 7.5924 9.40848 6.00269 10.5806 4.83058C11.7527 3.65848 13.3424 3 15 3ZM15 5.5C14.5075 5.5 14.0199 5.597 13.5649 5.78545C13.11 5.97391 12.6966 6.25013 12.3483 6.59835C12.0001 6.94657 11.7239 7.35997 11.5355 7.81494C11.347 8.26991 11.25 8.75754 11.25 9.25C11.25 9.74246 11.347 10.2301 11.5355 10.6851C11.7239 11.14 12.0001 11.5534 12.3483 11.9017C12.6966 12.2499 13.11 12.5261 13.5649 12.7145C14.0199 12.903 14.5075 13 15 13C15.9946 13 16.9484 12.6049 17.6517 11.9017C18.3549 11.1984 18.75 10.2446 18.75 9.25C18.75 8.25544 18.3549 7.30161 17.6517 6.59835C16.9484 5.89509 15.9946 5.5 15 5.5Z" fill="black"/>
</g>
<defs>
<clipPath id="clip0_12_59">
<rect width="30" height="30" fill="white" transform="translate(0 0.5)"/>
</clipPath>
</defs>
</svg>
